HIERARCHY
ROOT hip
{
  OFFSET 0 0 0
  CHANNELS 6 Xposition Yposition Zposition Zrotation Yrotation Xrotation
  JOINT abdomen
  {
    OFFSET 0 20.6881 -0.73152
    CHANNELS 3 Zrotation Xrotation Yrotation
    JOINT chest
    {
      OFFSET 0 11.7043 -0.48768
      CHANNELS 3 Zrotation Xrotation Yrotation
      JOINT neck
      {
        OFFSET 0 22.1894 -2.19456
        CHANNELS 3 Zrotation Xrotation Yrotation
        JOINT head
        {
          OFFSET -0.24384 7.07133 1.2192
          CHANNELS 3 Zrotation Xrotation Yrotation
          JOINT leftEye
          {
            OFFSET 4.14528 8.04674 8.04672
            CHANNELS 3 Zrotation Xrotation Yrotation
            End Site
            {
              OFFSET 1 0 0
            }
          }
          JOINT rightEye
          {
            OFFSET -3.6576 8.04674 8.04672
            CHANNELS 3 Zrotation Xrotation Yrotation
            End Site
            {
              OFFSET 1 0 0
            }
          }
        }
      }
      JOINT rCollar
      {
        OFFSET -2.68224 19.2634 -4.8768
        CHANNELS 3 Zrotation Xrotation Yrotation
        JOINT rShldr
        {
          OFFSET -8.77824 -1.95073 1.46304
          CHANNELS 3 Zrotation Xrotation Yrotation
          JOINT rForeArm
          {
            OFFSET -28.1742 -1.7115 0.48768
            CHANNELS 3 Zrotation Xrotation Yrotation
            JOINT rHand
            {
              OFFSET -22.5879 0.773209 7.07136
              CHANNELS 3 Zrotation Xrotation Yrotation
              JOINT rThumb1
              {
                OFFSET -1.2192 -0.487915 3.41376
                CHANNELS 3 Zrotation Xrotation Yrotation
                JOINT rThumb2
                {
                  OFFSET -3.37035 -0.52449 3.41376
                  CHANNELS 3 Zrotation Xrotation Yrotation
                  End Site
                  {
                    OFFSET -1.78271 -1.18214 1.43049
                  }
                }
              }
              JOINT rIndex1
              {
                OFFSET -7.75947 0.938293 5.60832
                CHANNELS 3 Zrotation Xrotation Yrotation
                JOINT rIndex2
                {
                  OFFSET -2.54057 -0.884171 1.56538
                  CHANNELS 3 Zrotation Xrotation Yrotation
                  End Site
                  {
                    OFFSET -1.62519 -0.234802 1.16502
                  }
                }
              }
              JOINT rMid1
              {
                OFFSET -8.24714 1.18213 3.41376
                CHANNELS 3 Zrotation Xrotation Yrotation
                JOINT rMid2
                {
                  OFFSET -3.10165 -0.590103 1.0647
                  CHANNELS 3 Zrotation Xrotation Yrotation
                  End Site
                  {
                    OFFSET -2.48547 -0.328903 0.83742
                  }
                }
              }
              JOINT rRing1
              {
                OFFSET -8.82822 0.546677 1.51678
                CHANNELS 3 Zrotation Xrotation Yrotation
                JOINT rRing2
                {
                  OFFSET -2.60934 -0.819778 -0.0198488
                  CHANNELS 3 Zrotation Xrotation Yrotation
                  End Site
                  {
                    OFFSET -2.33842 -0.294052 0.168128
                  }
                }
              }
              JOINT rPinky1
              {
                OFFSET -8.27202 -0.0477905 -0.4584
                CHANNELS 3 Zrotation Xrotation Yrotation
                JOINT rPinky2
                {
                  OFFSET -1.82734 -0.647385 -0.700984
                  CHANNELS 3 Zrotation Xrotation Yrotation
                  End Site
                  {
                    OFFSET -1.69225 -0.51767 -0.607171
                  }
                }
              }
            }
          }
        }
      }
      JOINT lCollar
      {
        OFFSET 2.68224 19.2634 -4.8768
        CHANNELS 3 Zrotation Xrotation Yrotation
        JOINT lShldr
        {
          OFFSET 8.77824 -1.95073 1.46304
          CHANNELS 3 Zrotation Xrotation Yrotation
          JOINT lForeArm
          {
            OFFSET 28.1742 -1.7115 0.48768
            CHANNELS 3 Zrotation Xrotation Yrotation
            JOINT lHand
            {
              OFFSET 22.5879 0.773209 7.07136
              CHANNELS 3 Zrotation Xrotation Yrotation
              JOINT lThumb1
              {
                OFFSET 1.2192 -0.487915 3.41376
                CHANNELS 3 Zrotation Xrotation Yrotation
                JOINT lThumb2
                {
                  OFFSET 3.37035 -0.52449 3.41376
                  CHANNELS 3 Zrotation Xrotation Yrotation
                  End Site
                  {
                    OFFSET 1.78271 -1.18214 1.43049
                  }
                }
              }
              JOINT lIndex1
              {
                OFFSET 7.75947 0.938293 5.60832
                CHANNELS 3 Zrotation Xrotation Yrotation
                JOINT lIndex2
                {
                  OFFSET 2.54057 -0.884171 1.56538
                  CHANNELS 3 Zrotation Xrotation Yrotation
                  End Site
                  {
                    OFFSET 1.62519 -0.234802 1.16502
                  }
                }
              }
              JOINT lMid1
              {
                OFFSET 8.24714 1.18213 3.41376
                CHANNELS 3 Zrotation Xrotation Yrotation
                JOINT lMid2
                {
                  OFFSET 3.10165 -0.590103 1.0647
                  CHANNELS 3 Zrotation Xrotation Yrotation
                  End Site
                  {
                    OFFSET 2.48547 -0.328903 0.83742
                  }
                }
              }
              JOINT lRing1
              {
                OFFSET 8.82822 0.546677 1.51678
                CHANNELS 3 Zrotation Xrotation Yrotation
                JOINT lRing2
                {
                  OFFSET 2.60934 -0.819778 -0.0198488
                  CHANNELS 3 Zrotation Xrotation Yrotation
                  End Site
                  {
                    OFFSET 2.33842 -0.294052 0.168128
                  }
                }
              }
              JOINT lPinky1
              {
                OFFSET 8.27202 -0.0477905 -0.4584
                CHANNELS 3 Zrotation Xrotation Yrotation
                JOINT lPinky2
                {
                  OFFSET 1.82734 -0.647385 -0.700984
                  CHANNELS 3 Zrotation Xrotation Yrotation
                  End Site
                  {
                    OFFSET 1.69225 -0.51767 -0.607171
                  }
                }
              }
            }
          }
        }
      }
    }
  }
  JOINT rButtock
  {
    OFFSET -8.77824 4.35084 1.2192
    CHANNELS 3 Zrotation Xrotation Yrotation
    JOINT rThigh
    {
      OFFSET 0 -1.70687 -2.19456
      CHANNELS 3 Zrotation Xrotation Yrotation
      JOINT rShin
      {
        OFFSET 0 -36.8199 0.73152
        CHANNELS 3 Zrotation Xrotation Yrotation
        JOINT rFoot
        {
          OFFSET 0.73152 -45.1104 -5.12064
          CHANNELS 3 Zrotation Xrotation Yrotation
          End Site
          {
            OFFSET -1.1221 -3.69964 12.103
          }
        }
      }
    }
  }
  JOINT lButtock
  {
    OFFSET 8.77824 4.35084 1.2192
    CHANNELS 3 Zrotation Xrotation Yrotation
    JOINT lThigh
    {
      OFFSET 0 -1.70687 -2.19456
      CHANNELS 3 Zrotation Xrotation Yrotation
      JOINT lShin
      {
        OFFSET 0 -36.8199 0.73152
        CHANNELS 3 Zrotation Xrotation Yrotation
        JOINT lFoot
        {
          OFFSET -0.73152 -45.1104 -5.12064
          CHANNELS 3 Zrotation Xrotation Yrotation
          End Site
          {
            OFFSET 1.1221 -3.69964 12.103
          }
        }
      }
    }
  }
}
MOTION
Frames:	6
Frame Time:	0.00833333
-0.835308 85.2343 65.4296 0.0 0.0 0.0 0.705188 -0.00371385 0.0199543 0.194579 -0.00526913 0.033714 -7.9437e-15 -7.95139e-16 -2.85753e-16 -2.40032e-14 3.18055e-15 -8.85213e-16 -0.0 0.0 0.0 -0.0 0.0 0.0 -3.92738e-15 1.26182e-17 4.96962e-17 -8.27546e-14 3.91357e-16 -2.5842e-15 -1.44606e-12 4.43886e-13 -7.31528e-14 -1.65704e-11 -3.88077e-13 -6.20208e-13 -3.90811e-11 1.17669e-13 -1.4885e-12 -6.74985e-11 2.00375e-13 -2.57307e-12 -3.90799e-11 1.16488e-13 -1.49804e-12 7.73091 5.47488 0.417314 -3.90831e-11 1.17283e-13 -1.48532e-12 2.90554 0.965183 0.102902 -3.90795e-11 1.17283e-13 -1.48611e-12 10.2786 0.731801 0.0259123 -3.9086e-11 1.20861e-13 -1.47896e-12 2.22167 -0.733487 -0.20892 -4.02427e-15 1.22299e-17 -3.47873e-16 -8.62555e-14 8.13775e-16 -4.17448e-15 -1.44705e-12 -4.26592e-13 -2.8625e-14 -1.65641e-11 4.76238e-13 -6.45653e-13 -3.90686e-11 9.89879e-14 -1.47578e-12 -6.7456e-11 1.65389e-13 -2.55478e-12 -3.90739e-11 9.93923e-14 -1.4726e-12 -7.73091 5.47488 -0.417314 -3.90664e-11 9.86966e-14 -1.48532e-12 -2.90554 0.965183 -0.102902 -3.90698e-11 9.88954e-14 -1.48373e-12 -10.2786 0.731801 -0.0259123 -3.90608e-11 1.03368e-13 -1.49804e-12 -2.22167 -0.733487 0.20892 -2.03217e-16 0.0 -3.88251e-19 1.03768 -4.8484 -0.0878817 -0.00129064 3.22991 0.0017198 -0.507994 1.61857 0.0909498 2.03217e-16 0.0 3.88251e-19 0.0358246 -2.16336 0.0186164 0.00864533 -1.63356 0.073053 0.498155 3.79688 -0.134158
-2.57748 84.2199 63.3569 -5.823 -6.8153 6.8518 2.0612 -1.35016 -2.45668 2.10206 0.0487314 -0.686761 -2.68707 3.75167 -3.28997 3.01312 0.880972 -6.59259 -0.0 0.0 0.0 -0.0 0.0 0.0 -3.44922e-14 -3.42932e-14 3.44259e-14 19.9108 4.52622 -0.695528 -4.04998 -1.80746 6.36099 0.0687804 -5.82313 -0.803201 1.82273e-10 7.017e-11 1.54402e-10 3.11475e-10 1.24582e-10 2.70398e-10 1.82276e-10 7.01693e-11 1.54397e-10 7.73091 5.47488 0.417314 1.82272e-10 7.01698e-11 1.54405e-10 2.90554 0.965183 0.102902 1.82277e-10 7.01698e-11 1.54404e-10 10.2786 0.731801 0.0259123 1.82268e-10 7.01722e-11 1.54411e-10 2.22167 -0.733487 -0.20892 -3.45466e-14 -3.4294e-14 3.40725e-14 -23.0331 4.97739 0.388842 4.43625 -2.0606 -6.87975 -0.00523391 1.60582 -0.225364 -8.46883e-11 -5.95617e-12 1.35355e-10 -1.46138e-10 -9.72333e-12 2.34669e-10 -8.46957e-11 -5.95573e-12 1.3536e-10 -7.73091 5.47488 -0.417314 -8.46866e-11 -5.95719e-12 1.35349e-10 -2.90554 0.965183 -0.102902 -8.46898e-11 -5.95642e-12 1.3535e-10 -10.2786 0.731801 -0.0259123 -8.4683e-11 -5.952e-12 1.35339e-10 -2.22167 -0.733487 0.20892 -2.03217e-16 0.0 -3.88251e-19 1.50426 -5.46699 1.61813 -0.00316109 5.07609 0.0300416 -0.63087 -0.564149 -4.33855 2.03217e-16 0.0 3.88251e-19 2.84701 -3.57982 -0.847453 0.0074007 3.20453 -0.024724 0.682112 0.45689 3.23126
-2.55725 84.2119 63.3396 -5.81 -6.675 6.9267 3.36383 -2.7611 -5.08415 4.13202 0.107872 -1.44983 -5.05478 7.67044 -6.80865 6.39824 1.83119 -13.5605 -0.0 0.0 0.0 -0.0 0.0 0.0 -6.49292e-14 -6.62136e-14 7.42181e-14 41.0724 9.33065 -1.44075 -7.90913 -3.65157 13.1235 -0.0396339 -11.9789 -1.68087 3.86627e-10 1.83811e-10 3.43797e-10 6.60341e-10 3.24791e-10 6.01171e-10 3.86631e-10 1.8381e-10 3.43796e-10 7.73091 5.47488 0.417314 3.86626e-10 1.83811e-10 3.438e-10 2.90554 0.965183 0.102902 3.86633e-10 1.83811e-10 3.43798e-10 10.2786 0.731801 0.0259123 3.86621e-10 1.83812e-10 3.43804e-10 2.22167 -0.733487 -0.20892 -6.49374e-14 -6.62151e-14 7.39137e-14 -47.4648 10.2227 0.809302 8.59909 -4.14502 -14.1919 0.00298243 3.29694 -0.463299 -1.89168e-10 -4.99013e-11 3.03357e-10 -3.26421e-10 -8.46547e-11 5.26253e-10 -1.89178e-10 -4.99008e-11 3.03365e-10 -7.73091 5.47488 -0.417314 -1.89167e-10 -4.99032e-11 3.03355e-10 -2.90554 0.965183 -0.102902 -1.8917e-10 -4.99018e-11 3.03355e-10 -10.2786 0.731801 -0.0259123 -1.89166e-10 -4.98974e-11 3.03348e-10 -2.22167 -0.733487 0.20892 -2.03217e-16 0.0 -3.88251e-19 2.03551 -6.11723 3.42698 -0.00716596 7.03138 0.0602494 -1.12691 -2.84115 -9.03117 2.03217e-16 0.0 3.88251e-19 5.76967 -5.07469 -1.76492 0.0243237 8.32048 -0.129018 1.2994 -3.01631 6.80417
-2.67541 84.2176 63.3328 -6.0147 -6.7655 6.9524 4.42438 -4.01294 -7.42622 5.9211 0.156635 -2.12772 -6.7549 11.1053 -10.0386 9.63464 2.5035 -19.7951 -0.0 0.0 0.0 -0.0 0.0 0.0 -9.56219e-14 -1.02905e-13 1.03178e-13 60.0701 13.5705 -2.13984 -10.9666 -5.15558 19.1539 -0.303401 -17.4553 -2.51296 6.24982e-10 2.10275e-10 4.66184e-10 1.06942e-09 3.73344e-10 8.16339e-10 6.24987e-10 2.10275e-10 4.66186e-10 7.73091 5.47488 0.417314 6.24982e-10 2.10275e-10 4.66187e-10 2.90554 0.965183 0.102902 6.24991e-10 2.10275e-10 4.66184e-10 10.2786 0.731801 0.0259123 6.24976e-10 2.10275e-10 4.6619e-10 2.22167 -0.733487 -0.20892 -9.55912e-14 -1.02907e-13 1.02913e-13 -69.3079 14.9294 1.20273 11.8534 -5.82605 -20.7379 0.0223093 4.81718 -0.678223 -1.75928e-10 -1.80665e-11 4.09016e-10 -3.03501e-10 -2.95008e-11 7.09116e-10 -1.75939e-10 -1.8066e-11 4.09025e-10 -7.73091 5.47488 -0.417314 -1.75927e-10 -1.8069e-11 4.09017e-10 -2.90554 0.965183 -0.102902 -1.7593e-10 -1.8067e-11 4.09016e-10 -10.2786 0.731801 -0.0259123 -1.75927e-10 -1.80627e-11 4.09013e-10 -2.22167 -0.733487 0.20892 -2.03217e-16 0.0 -3.88251e-19 2.54836 -6.68493 5.04179 -0.0124387 8.76846 0.0873583 -1.88253 -4.80383 -13.2442 2.03217e-16 0.0 3.88251e-19 8.34023 -6.40741 -2.5908 0.0552624 12.8806 -0.225784 2.2254 -6.12679 10.019
-2.64973 84.2145 63.3326 -5.8581 -6.6312 6.9465 5.12505 -4.89579 -9.03944 7.10484 0.17956 -2.59263 -7.70545 13.4709 -12.3879 12.0231 2.6345 -24.1756 -0.0 0.0 0.0 -0.0 0.0 0.0 -1.26954e-13 -1.51522e-13 1.05058e-13 73.4181 16.4066 -2.67251 -12.8588 -6.06944 23.285 -0.587687 -21.2468 -3.13245 9.4834e-10 1.87971e-11 4.21051e-10 1.62904e-09 4.2753e-11 7.42495e-10 9.48346e-10 1.87975e-11 4.21055e-10 7.73091 5.47488 0.417314 9.48341e-10 1.87975e-11 4.21055e-10 2.90554 0.965183 0.102902 9.4835e-10 1.87972e-11 4.21052e-10 10.2786 0.731801 0.0259123 9.48333e-10 1.87967e-11 4.21058e-10 2.22167 -0.733487 -0.20892 -1.26903e-13 -1.51524e-13 1.04809e-13 -84.5319 18.292 1.49484 13.8601 -6.84211 -25.273 0.0430379 5.9105 -0.833656 1.31615e-10 2.03218e-10 3.58814e-10 2.27426e-10 3.50866e-10 6.20178e-10 1.31602e-10 2.03218e-10 3.58824e-10 -7.73091 5.47488 -0.417314 1.31615e-10 2.03216e-10 3.58817e-10 -2.90554 0.965183 -0.102902 1.31612e-10 2.03218e-10 3.58816e-10 -10.2786 0.731801 -0.0259123 1.31614e-10 2.03222e-10 3.58814e-10 -2.22167 -0.733487 0.20892 -2.03217e-16 0.0 -3.88251e-19 2.93603 -7.06159 6.16259 -0.0169209 9.96 0.106149 -2.57856 -6.10818 -16.2064 2.03217e-16 0.0 3.88251e-19 10.1214 -7.33947 -3.17826 0.0856613 16.0514 -0.297828 3.11114 -8.43006 12.2696
-2.65643 84.2168 63.3859 -5.8562 -6.7177 6.9956 5.44912 -5.2805 -9.61173 7.43145 0.170939 -2.75683 -8.0203 14.4407 -13.398 13.0407 2.0949 -25.9591 -0.0 0.0 0.0 -0.0 0.0 0.0 -1.67191e-13 -2.35522e-13 6.07559e-14 78.7456 17.2874 -2.93197 -13.4677 -6.33307 24.7153 -0.721883 -22.708 -3.38349 1.51213e-09 -5.96917e-10 1.05086e-10 2.61022e-09 -1.02502e-09 2.02722e-10 1.51214e-09 -5.96917e-10 1.05087e-10 7.73091 5.47488 0.417314 1.51214e-09 -5.96917e-10 1.05092e-10 2.90554 0.965183 0.102902 1.51214e-09 -5.96918e-10 1.05089e-10 10.2786 0.731801 0.0259123 1.51213e-09 -5.96919e-10 1.05095e-10 2.22167 -0.733487 -0.20892 -1.6715e-13 -2.3552e-13 6.04806e-14 -90.4011 19.7877 1.60422 14.5358 -7.156 -26.9236 0.0539488 6.40949 -0.904855 1.03564e-09 8.06493e-10 1.64435e-11 1.78798e-09 1.38699e-09 2.14785e-11 1.03563e-09 8.06491e-10 1.64513e-11 -7.73091 5.47488 -0.417314 1.03564e-09 8.0649e-10 1.6447e-11 -2.90554 0.965183 -0.102902 1.03564e-09 8.06492e-10 1.64449e-11 -10.2786 0.731801 -0.0259123 1.03564e-09 8.06496e-10 1.64431e-11 -2.22167 -0.733487 0.20892 -2.03217e-16 0.0 -3.88251e-19 3.13512 -7.16601 6.59401 -0.0184206 10.3702 0.112579 -2.87932 -6.57509 -17.3824 2.03217e-16 0.0 3.88251e-19 10.8588 -7.71676 -3.41859 0.0984889 17.2846 -0.331139 3.58732 -9.74118 13.1026
